<?xml version="1.0" encoding="UTF-8" standalone="no"?>
<!DOCTYPE svg PUBLIC "-//W3C//DTD SVG 1.1//EN" "http://www.w3.org/Graphics/SVG/1.1/DTD/svg11.dtd">
<svg width="100%" height="100%" viewBox="0 0 400 289" version="1.1" xmlns="http://www.w3.org/2000/svg" xmlns:xlink="http://www.w3.org/1999/xlink" xml:space="preserve" style="fill-rule:evenodd;clip-rule:evenodd;stroke-linecap:round;stroke-linejoin:round;stroke-miterlimit:1.41421;">
    <g transform="matrix(1.02423,0,0,0.881125,-4.69302,-3.58442)">
        <path d="M395.121,35.635C395.121,18.213 382.953,4.068 367.965,4.068L31.739,4.068C16.751,4.068 4.582,18.213 4.582,35.635L4.582,300.491C4.582,317.913 16.751,332.058 31.739,332.058L367.965,332.058C382.953,332.058 395.121,317.913 395.121,300.491L395.121,35.635Z" style="fill:rgb(8,30,63);"/>
    </g>
    <g transform="matrix(0.477431,0,0,0.477431,47.2222,48.6354)">
        <g transform="matrix(0.851772,0,0,0.851772,46.9173,3.28193)">
            <g transform="matrix(0.263829,0,0,0.465882,238.37,68.3875)">
                <rect x="267.2" y="16.012" width="88.999" height="252" style="fill:white;stroke:white;stroke-width:65.12px;"/>
            </g>
            <g transform="matrix(1.56149,0,0,1.56149,173.387,-16.9696)">
                <circle cx="94.281" cy="187.565" r="7.519" style="fill:rgb(235,235,235);"/>
                <path d="M94.449,172.529L94.498,172.529L94.642,172.532L94.689,172.533L94.833,172.538L95.025,172.546L95.072,172.549L95.216,172.557L95.263,172.56L95.406,172.57L95.454,172.573L95.597,172.585L95.644,172.589L95.785,172.603L95.832,172.608L95.974,172.623L96.022,172.628L96.164,172.646L96.211,172.652L96.351,172.67L96.398,172.677L96.539,172.697L96.586,172.705L96.726,172.727L96.772,172.735L96.911,172.759L96.957,172.767L97.096,172.793L97.143,172.802L97.281,172.829L97.328,172.839L97.465,172.868L97.51,172.877L97.647,172.908L97.694,172.919L97.831,172.951L98.011,172.996L98.056,173.008L98.192,173.044L98.237,173.056L98.371,173.093L98.417,173.106L98.551,173.145L98.595,173.159L98.728,173.199L98.773,173.213L98.905,173.255L98.948,173.269L99.125,173.328L99.256,173.373L99.3,173.389L99.43,173.436L99.473,173.451L99.602,173.499L99.646,173.516L99.775,173.566L99.818,173.583L99.946,173.634L99.989,173.652L100.116,173.705L100.326,173.795L100.452,173.851L100.494,173.87L100.619,173.928L100.66,173.947L100.784,174.006L100.948,174.086L101.112,174.168L101.272,174.252L101.313,174.273L101.433,174.337L101.593,174.425L101.633,174.448L101.752,174.515L101.791,174.538L101.909,174.606L101.948,174.629L102.064,174.699L102.103,174.723L102.219,174.794L102.258,174.818L102.372,174.891L102.41,174.915L102.524,174.989L102.561,175.013L102.674,175.089L102.711,175.114L102.823,175.191L102.861,175.217L103.009,175.321L103.119,175.4L103.156,175.427L103.3,175.534L103.407,175.615L103.442,175.642L103.586,175.754L103.692,175.838L103.726,175.866L103.831,175.952L103.866,175.981L103.97,176.067L104.003,176.096L104.106,176.183L104.14,176.213L104.241,176.302L104.275,176.332L104.376,176.422L104.409,176.452L104.508,176.544L104.541,176.574L104.639,176.666L104.768,176.791L104.801,176.823L104.897,176.918L104.929,176.95L105.024,177.046L105.055,177.077L105.148,177.174L105.179,177.207L105.272,177.305L105.302,177.338L105.393,177.437L105.424,177.47L105.514,177.571L105.544,177.604L105.633,177.706L105.662,177.739L105.75,177.842L105.78,177.877L105.866,177.981L105.894,178.015L105.979,178.119L106.007,178.154L106.092,178.26L106.12,178.296L106.203,178.403L106.23,178.438L106.311,178.546L106.339,178.582L106.42,178.691L106.446,178.727L106.525,178.837L106.629,178.985L106.654,179.022L106.731,179.134L106.757,179.172L106.832,179.285L106.857,179.322L106.931,179.436L107.027,179.588L107.051,179.627L107.123,179.743L107.147,179.782L107.217,179.898L107.24,179.937L107.308,180.055L107.331,180.094L107.398,180.213L107.421,180.253L107.487,180.373L107.508,180.412L107.573,180.532L107.594,180.573L107.657,180.694L107.677,180.734L107.739,180.856L107.76,180.898L107.84,181.062L107.898,181.185L107.918,181.227L107.975,181.352L107.994,181.394L108.05,181.52L108.069,181.562L108.141,181.73L108.194,181.857L108.211,181.9L108.263,182.028L108.28,182.071L108.33,182.2L108.346,182.244L108.395,182.373L108.41,182.416L108.457,182.546L108.473,182.59L108.518,182.721L108.533,182.765L108.577,182.897L108.633,183.073L108.647,183.118L108.687,183.251L108.7,183.295L108.739,183.429L108.752,183.474L108.79,183.609L108.802,183.654L108.838,183.79L108.849,183.835L108.883,183.97L108.894,184.015L108.927,184.152L108.938,184.199L108.968,184.336L108.978,184.381L109.007,184.518L109.017,184.565L109.044,184.703L109.053,184.75L109.079,184.889L109.087,184.935L109.111,185.074L109.119,185.12L109.141,185.26L109.148,185.307L109.169,185.447L109.175,185.494L109.194,185.635L109.2,185.682L109.217,185.823L109.223,185.871L109.238,186.012L109.243,186.06L109.256,186.202L109.261,186.25L109.272,186.393L109.276,186.44L109.286,186.583L109.289,186.63L109.297,186.774L109.3,186.821L109.308,187.013L109.312,187.157L109.314,187.204L109.316,187.348L109.317,187.396L109.318,187.541L109.318,187.589L109.317,187.734L109.316,187.782L109.314,187.927L109.312,187.973L109.308,188.117L109.306,188.165L109.3,188.309L109.297,188.357L109.289,188.5L109.286,188.548L109.276,188.69L109.272,188.737L109.261,188.88L109.256,188.928L109.243,189.07L109.238,189.118L109.223,189.26L109.217,189.307L109.2,189.448L109.194,189.495L109.175,189.636L109.169,189.683L109.148,189.823L109.141,189.87L109.119,190.01L109.111,190.056L109.087,190.195L109.079,190.242L109.053,190.381L109.044,190.427L109.017,190.565L109.007,190.612L108.978,190.749L108.968,190.794L108.938,190.932L108.927,190.978L108.894,191.115L108.883,191.16L108.849,191.295L108.838,191.341L108.802,191.476L108.79,191.521L108.752,191.656L108.739,191.701L108.7,191.835L108.687,191.88L108.647,192.013L108.633,192.057L108.591,192.189L108.577,192.233L108.533,192.365L108.518,192.409L108.472,192.541L108.457,192.585L108.41,192.714L108.395,192.757L108.346,192.886L108.33,192.93L108.28,193.059L108.263,193.102L108.211,193.23L108.194,193.273L108.141,193.4L108.123,193.443L108.069,193.569L108.05,193.611L107.994,193.736L107.975,193.778L107.918,193.903L107.898,193.945L107.84,194.069L107.82,194.109L107.76,194.232L107.739,194.273L107.678,194.396L107.657,194.436L107.594,194.557L107.573,194.597L107.508,194.718L107.486,194.758L107.42,194.878L107.398,194.918L107.331,195.036L107.308,195.076L107.24,195.193L107.217,195.232L107.147,195.349L107.123,195.388L107.052,195.503L107.028,195.541L106.955,195.656L106.93,195.695L106.856,195.809L106.832,195.845L106.757,195.958L106.732,195.996L106.655,196.108L106.629,196.145L106.551,196.256L106.525,196.293L106.446,196.403L106.419,196.439L106.339,196.548L106.312,196.584L106.23,196.692L106.203,196.728L106.12,196.835L106.092,196.87L106.008,196.976L105.98,197.011L105.895,197.115L105.866,197.149L105.779,197.253L105.749,197.289L105.661,197.392L105.633,197.425L105.544,197.526L105.514,197.559L105.424,197.66L105.393,197.693L105.302,197.793L105.272,197.825L105.18,197.923L105.149,197.955L105.055,198.052L105.023,198.085L104.928,198.181L104.897,198.213L104.801,198.308L104.768,198.34L104.671,198.433L104.639,198.464L104.541,198.556L104.508,198.587L104.409,198.678L104.376,198.708L104.275,198.798L104.241,198.828L104.14,198.917L104.106,198.946L104.004,199.034L103.969,199.063L103.865,199.15L103.831,199.179L103.726,199.264L103.692,199.292L103.586,199.376L103.55,199.405L103.443,199.488L103.408,199.514L103.3,199.596L103.264,199.623L103.155,199.703L103.119,199.73L103.009,199.809L102.972,199.836L102.861,199.914L102.823,199.939L102.712,200.016L102.675,200.041L102.562,200.116L102.524,200.141L102.41,200.215L102.372,200.239L102.257,200.312L102.218,200.337L102.102,200.408L102.064,200.431L101.948,200.501L101.909,200.524L101.791,200.592L101.752,200.615L101.633,200.683L101.593,200.705L101.473,200.771L101.433,200.793L101.313,200.857L101.272,200.879L101.152,200.941L101.112,200.962L100.99,201.023L100.948,201.044L100.825,201.105L100.784,201.124L100.66,201.183L100.619,201.202L100.494,201.26L100.452,201.279L100.326,201.335L100.284,201.353L100.158,201.407L100.116,201.425L99.989,201.478L99.946,201.496L99.818,201.547L99.775,201.564L99.646,201.614L99.602,201.631L99.473,201.679L99.43,201.695L99.3,201.741L99.256,201.757L99.125,201.802L99.081,201.817L98.949,201.861L98.904,201.876L98.771,201.918L98.728,201.931L98.595,201.972L98.551,201.985L98.417,202.024L98.371,202.037L98.237,202.074L98.192,202.086L98.056,202.122L98.011,202.134L97.875,202.168L97.831,202.179L97.694,202.211L97.648,202.222L97.511,202.253L97.464,202.263L97.326,202.292L97.281,202.301L97.143,202.329L97.096,202.338L96.957,202.363L96.911,202.372L96.772,202.396L96.726,202.403L96.586,202.425L96.539,202.433L96.398,202.453L96.351,202.46L96.211,202.479L96.164,202.485L96.023,202.502L95.975,202.507L95.833,202.522L95.786,202.527L95.643,202.541L95.596,202.545L95.453,202.557L95.406,202.56L95.263,202.57L95.216,202.573L95.072,202.582L95.025,202.584L94.881,202.59L94.834,202.592L94.69,202.597L94.641,202.598L94.496,202.601L94.449,202.601L94.304,202.602L94.257,202.602L94.113,202.601L94.065,202.601L93.92,202.598L93.871,202.597L93.727,202.592L93.68,202.59L93.536,202.584L93.489,202.582L93.346,202.573L93.298,202.57L93.155,202.56L93.109,202.557L92.966,202.545L92.918,202.541L92.775,202.527L92.728,202.522L92.586,202.507L92.539,202.502L92.397,202.485L92.351,202.479L92.21,202.46L92.163,202.453L92.023,202.433L91.976,202.425L91.836,202.403L91.79,202.396L91.651,202.372L91.604,202.363L91.465,202.338L91.419,202.329L91.281,202.301L91.235,202.292L91.097,202.263L91.05,202.253L90.913,202.222L90.867,202.211L90.731,202.179L90.686,202.168L90.55,202.134L90.505,202.122L90.37,202.086L90.325,202.074L90.19,202.037L90.145,202.024L90.011,201.985L89.966,201.972L89.834,201.931L89.79,201.918L89.658,201.876L89.612,201.861L89.48,201.817L89.436,201.802L89.305,201.757L89.261,201.741L89.131,201.695L89.089,201.679L88.959,201.631L88.915,201.614L88.786,201.564L88.744,201.547L88.616,201.496L88.573,201.478L88.446,201.425L88.403,201.407L88.277,201.353L88.235,201.335L88.11,201.279L88.068,201.26L87.943,201.202L87.901,201.183L87.777,201.124L87.737,201.105L87.614,201.044L87.572,201.023L87.45,200.962L87.41,200.941L87.289,200.879L87.249,200.857L87.128,200.793L87.088,200.771L86.968,200.705L86.928,200.683L86.81,200.615L86.77,200.592L86.653,200.524L86.614,200.501L86.497,200.431L86.459,200.408L86.343,200.337L86.304,200.312L86.189,200.239L86.151,200.215L86.038,200.141L86,200.116L85.887,200.041L85.85,200.016L85.738,199.939L85.701,199.914L85.59,199.836L85.553,199.809L85.443,199.73L85.406,199.703L85.297,199.623L85.261,199.596L85.153,199.514L85.119,199.488L85.012,199.405L84.976,199.376L84.87,199.292L84.835,199.264L84.731,199.179L84.696,199.15L84.592,199.063L84.558,199.034L84.455,198.946L84.422,198.917L84.32,198.828L84.286,198.798L84.186,198.708L84.152,198.678L84.053,198.587L84.021,198.556L83.923,198.464L83.891,198.433L83.793,198.34L83.761,198.308L83.664,198.213L83.633,198.181L83.538,198.085L83.506,198.052L83.412,197.955L83.382,197.923L83.289,197.825L83.259,197.793L83.168,197.693L83.138,197.66L83.047,197.559L83.017,197.526L82.929,197.425L82.9,197.392L82.812,197.289L82.782,197.253L82.695,197.149L82.667,197.115L82.582,197.011L82.554,196.976L82.47,196.87L82.442,196.835L82.359,196.728L82.331,196.692L82.25,196.584L82.223,196.548L82.142,196.439L82.116,196.403L82.036,196.293L82.01,196.256L81.932,196.145L81.906,196.108L81.83,195.996L81.804,195.958L81.729,195.845L81.705,195.809L81.631,195.695L81.606,195.656L81.533,195.541L81.51,195.503L81.438,195.388L81.415,195.349L81.345,195.232L81.322,195.193L81.253,195.076L81.231,195.036L81.163,194.918L81.141,194.878L81.075,194.758L81.053,194.718L80.989,194.597L80.968,194.557L80.905,194.436L80.884,194.396L80.822,194.273L80.801,194.232L80.741,194.109L80.722,194.069L80.663,193.945L80.643,193.903L80.586,193.778L80.567,193.736L80.511,193.611L80.493,193.569L80.438,193.443L80.421,193.4L80.368,193.273L80.35,193.23L80.299,193.102L80.282,193.059L80.232,192.93L80.215,192.886L80.167,192.757L80.151,192.714L80.104,192.585L80.089,192.541L80.044,192.409L80.028,192.365L79.985,192.233L79.971,192.189L79.929,192.057L79.915,192.013L79.874,191.88L79.861,191.835L79.822,191.701L79.809,191.656L79.772,191.521L79.759,191.476L79.724,191.341L79.712,191.295L79.678,191.16L79.667,191.115L79.635,190.978L79.624,190.932L79.593,190.794L79.583,190.749L79.554,190.612L79.545,190.565L79.517,190.427L79.508,190.381L79.483,190.242L79.474,190.195L79.45,190.056L79.443,190.01L79.42,189.87L79.413,189.823L79.392,189.683L79.386,189.636L79.367,189.495L79.361,189.448L79.344,189.307L79.339,189.26L79.323,189.118L79.318,189.07L79.305,188.928L79.301,188.88L79.289,188.737L79.285,188.69L79.275,188.548L79.272,188.5L79.264,188.357L79.262,188.309L79.255,188.165L79.254,188.117L79.249,187.973L79.248,187.927L79.245,187.782L79.244,187.734L79.243,187.589L79.243,187.541L79.244,187.396L79.245,187.348L79.248,187.204L79.249,187.157L79.254,187.013L79.255,186.965L79.262,186.821L79.264,186.774L79.272,186.63L79.275,186.583L79.285,186.44L79.289,186.393L79.301,186.25L79.305,186.202L79.318,186.06L79.323,186.012L79.339,185.871L79.344,185.823L79.361,185.682L79.367,185.635L79.386,185.494L79.393,185.447L79.413,185.307L79.42,185.26L79.443,185.12L79.45,185.074L79.474,184.935L79.482,184.889L79.508,184.75L79.517,184.703L79.545,184.565L79.554,184.518L79.583,184.381L79.593,184.336L79.624,184.199L79.635,184.152L79.667,184.015L79.678,183.97L79.712,183.835L79.724,183.79L79.759,183.654L79.772,183.609L79.809,183.474L79.822,183.429L79.861,183.295L79.874,183.251L79.915,183.118L79.929,183.073L79.971,182.941L79.985,182.897L80.029,182.765L80.043,182.721L80.089,182.59L80.104,182.546L80.151,182.416L80.167,182.373L80.215,182.244L80.232,182.2L80.282,182.071L80.299,182.028L80.35,181.9L80.368,181.857L80.421,181.73L80.438,181.688L80.493,181.562L80.511,181.52L80.567,181.394L80.586,181.352L80.643,181.227L80.663,181.185L80.722,181.062L80.741,181.021L80.801,180.898L80.822,180.856L80.884,180.734L80.904,180.694L80.967,180.573L80.989,180.532L81.053,180.412L81.075,180.373L81.141,180.253L81.163,180.213L81.231,180.094L81.253,180.055L81.322,179.937L81.345,179.898L81.415,179.782L81.438,179.743L81.51,179.627L81.534,179.588L81.607,179.474L81.631,179.436L81.704,179.322L81.729,179.285L81.804,179.172L81.83,179.134L81.907,179.022L81.932,178.985L82.01,178.874L82.036,178.837L82.116,178.727L82.142,178.691L82.222,178.582L82.25,178.546L82.332,178.438L82.358,178.403L82.441,178.296L82.469,178.26L82.554,178.154L82.582,178.119L82.667,178.015L82.695,177.981L82.782,177.877L82.811,177.842L82.899,177.739L82.928,177.706L83.017,177.604L83.047,177.571L83.138,177.47L83.168,177.437L83.259,177.338L83.289,177.305L83.382,177.207L83.413,177.174L83.507,177.077L83.538,177.046L83.632,176.95L83.664,176.918L83.761,176.823L83.793,176.791L83.891,176.697L83.923,176.666L84.021,176.574L84.053,176.544L84.152,176.452L84.186,176.422L84.286,176.332L84.32,176.302L84.422,176.213L84.456,176.183L84.558,176.096L84.592,176.067L84.695,175.981L84.73,175.952L84.835,175.866L84.87,175.838L84.976,175.754L85.012,175.726L85.119,175.642L85.154,175.615L85.262,175.534L85.297,175.508L85.405,175.427L85.442,175.4L85.553,175.321L85.59,175.295L85.701,175.217L85.738,175.191L85.85,175.114L85.888,175.089L86.001,175.013L86.038,174.989L86.151,174.915L86.189,174.891L86.304,174.818L86.342,174.794L86.458,174.723L86.497,174.699L86.614,174.629L86.653,174.606L86.77,174.538L86.81,174.515L86.928,174.448L86.968,174.425L87.088,174.359L87.128,174.337L87.249,174.273L87.289,174.252L87.41,174.189L87.45,174.168L87.572,174.107L87.614,174.086L87.737,174.026L87.777,174.006L87.901,173.947L87.943,173.928L88.068,173.87L88.11,173.851L88.235,173.795L88.277,173.777L88.403,173.723L88.446,173.705L88.573,173.652L88.616,173.634L88.744,173.583L88.786,173.566L88.915,173.516L88.959,173.499L89.089,173.451L89.131,173.436L89.261,173.389L89.305,173.373L89.436,173.328L89.481,173.313L89.613,173.269L89.657,173.255L89.789,173.213L89.833,173.199L89.966,173.159L90.011,173.145L90.145,173.106L90.19,173.093L90.325,173.056L90.37,173.044L90.505,173.008L90.55,172.996L90.686,172.962L90.731,172.951L90.867,172.919L90.914,172.908L91.051,172.877L91.096,172.868L91.234,172.839L91.28,172.829L91.419,172.802L91.465,172.793L91.604,172.767L91.651,172.759L91.79,172.735L91.836,172.727L91.976,172.705L92.023,172.697L92.163,172.677L92.21,172.67L92.351,172.652L92.397,172.646L92.539,172.628L92.587,172.623L92.729,172.608L92.776,172.603L92.918,172.589L92.964,172.585L93.107,172.573L93.155,172.57L93.298,172.56L93.346,172.557L93.489,172.549L93.536,172.546L93.68,172.54L93.728,172.538L93.872,172.533L93.919,172.532L94.064,172.529L94.112,172.529L94.257,172.528L94.304,172.528L94.449,172.529Z" style="fill:white;"/>
            </g>
        </g>
        <g id="Layer_2" transform="matrix(-1,-5.66387e-16,7.62007e-16,-1.34538,640.5,613.48)">
            <path d="M461.937,210.5L608.5,210.5L608.5,459.5L322,459.5L32.5,459.5L32.5,210.5L328.612,210.5L421.937,153.988" style="fill:none;stroke:white;stroke-width:25px;stroke-miterlimit:10;"/>
        </g>
    </g>
</svg>
