<?xml version="1.0" encoding="UTF-8" standalone="no"?>
<!DOCTYPE svg PUBLIC "-//W3C//DTD SVG 1.1//EN" "http://www.w3.org/Graphics/SVG/1.1/DTD/svg11.dtd">
<svg width="100%" height="100%" viewBox="0 0 400 289" version="1.1" xmlns="http://www.w3.org/2000/svg" xmlns:xlink="http://www.w3.org/1999/xlink" xml:space="preserve" style="fill-rule:evenodd;clip-rule:evenodd;stroke-linecap:round;stroke-linejoin:round;stroke-miterlimit:10;">
    <g transform="matrix(1.02423,0,0,0.881125,-4.69324,-3.58455)">
        <path d="M395.121,35.635C395.121,18.213 382.953,4.068 367.965,4.068L31.739,4.068C16.751,4.068 4.582,18.213 4.582,35.635L4.582,300.491C4.582,317.913 16.751,332.058 31.739,332.058L367.965,332.058C382.953,332.058 395.121,317.913 395.121,300.491L395.121,35.635Z" style="fill:rgb(8,30,63);"/>
    </g>
    <g transform="matrix(0.955813,0,0,0.976519,8.37548,0.375983)">
        <g transform="matrix(0.499503,0,0,0.499503,45.288,21.7821)">
            <path d="M412.199,205.512L598.699,205.512L598.699,454.512L312.2,454.512L22.7,454.512L22.7,205.512L212.2,205.512" style="fill:none;stroke:white;stroke-width:25px;"/>
        </g>
        <g transform="matrix(0.856362,0,0,0.856362,28.0036,16.6243)">
            <g>
                <g transform="matrix(0.572158,0,0,0.572158,22.7141,6.85061)">
                    <rect x="267.2" y="16.012" width="88.999" height="252" style="fill:white;fill-rule:nonzero;"/>
                </g>
                <g transform="matrix(0.572158,0,0,0.572158,22.7141,6.85061)">
                    <rect x="267.2" y="16.012" width="88.999" height="252" style="fill:none;stroke:white;stroke-width:14px;"/>
                </g>
            </g>
            <g>
                <g transform="matrix(0.572158,0,0,0.572158,22.7141,6.85061)">
                    <path d="M177.583,262.277L446.948,261.551L312.634,397.655L177.583,262.277Z" style="fill:white;fill-rule:nonzero;"/>
                </g>
                <g transform="matrix(0.572158,0,0,0.572158,22.7141,6.85061)">
                    <path d="M177.583,262.277L446.948,261.551L312.634,397.655L177.583,262.277Z" style="fill:none;stroke:white;stroke-width:14px;"/>
                </g>
            </g>
        </g>
    </g>
</svg>
